<?xml version="1.0" encoding="utf-8"?>
<!-- Generator: Adobe Illustrator 13.0.0, SVG Export Plug-In . SVG Version: 6.00 Build 14948)  -->
<!DOCTYPE svg PUBLIC "-//W3C//DTD SVG 1.1//EN" "http://www.w3.org/Graphics/SVG/1.1/DTD/svg11.dtd">
<svg version="1.1" xmlns="http://www.w3.org/2000/svg" xmlns:xlink="http://www.w3.org/1999/xlink" x="0px" y="0px" width="416px"
	 height="416px" viewBox="52.609 52.153 416 416" enable-background="new 52.609 52.153 416 416" xml:space="preserve">
<g id="Ebene_2" display="none">
	<rect x="2.5" y="-2.5" display="inline" fill="#EA1818" width="530" height="505"/>
</g>
<g id="Layer_1">
	<g>
		<path d="M430.109,139.552c4.7-5.899,7.5-13.5,7.5-21.6c0-19.2-15.6-34.8-34.8-34.8c-8.2,0-15.7,2.8-21.601,7.5
			c-34-24.2-75.699-38.5-120.6-38.5c-114.9,0-208,93.1-208,208c0,114.899,93.1,208,208,208c114.9,0,208-93.101,208-208
			C468.609,215.252,454.31,173.552,430.109,139.552z M396.409,395.952c-17.6,17.6-38.2,31.5-61.1,41.2c-23.7,10-48.8,15.1-74.8,15.1
			c-25.9,0-51.101-5.1-74.8-15.1c-22.9-9.7-43.4-23.5-61.1-41.2c-17.6-17.6-31.5-38.2-41.2-61.1c-10-23.7-15.1-48.801-15.1-74.801
			c0-25.899,5.1-51.1,15.1-74.8c9.7-22.9,23.5-43.4,41.2-61.1c17.7-17.7,38.2-31.5,61.1-41.2c23.7-10,48.8-15.101,74.8-15.101
			c25.899,0,51.1,5.101,74.8,15.101c12.7,5.399,24.7,12.1,35.899,20c-2.1,4.5-3.3,9.5-3.3,14.899c0,19.2,15.601,34.801,34.8,34.801
			c5.301,0,10.301-1.2,14.9-3.301c7.9,11.2,14.6,23.2,20,35.9c10,23.7,15.1,48.8,15.1,74.8c0,25.9-5.1,51.101-15.1,74.801
			C427.909,357.752,414.109,378.353,396.409,395.952z"/>
		<circle cx="260.609" cy="260.152" r="96.1"/>
	</g>
	<g>
		<rect x="227.578" y="218.864" fill="#FFFFFF" width="20.387" height="82.578"/>
		<rect x="273.254" y="218.864" fill="#FFFFFF" width="20.387" height="82.578"/>
	</g>
</g>
</svg>
