<?xml version="1.0" encoding="utf-8"?>
<!-- Generator: Adobe Illustrator 13.0.0, SVG Export Plug-In . SVG Version: 6.00 Build 14948)  -->
<!DOCTYPE svg PUBLIC "-//W3C//DTD SVG 1.1//EN" "http://www.w3.org/Graphics/SVG/1.1/DTD/svg11.dtd">
<svg version="1.1" xmlns="http://www.w3.org/2000/svg" xmlns:xlink="http://www.w3.org/1999/xlink" x="0px" y="0px" width="416px"
	 height="416px" viewBox="52.998 47.592 416 416" enable-background="new 52.998 47.592 416 416" xml:space="preserve">
<g id="Ebene_2" display="none">
	<rect x="-21.5" y="-28.5" display="inline" fill="#FF0000" width="539" height="573"/>
</g>
<g id="Layer_1">
	<g>
		<path d="M430.5,134.993c4.7-5.899,7.5-13.5,7.5-21.602c0-19.2-15.6-34.8-34.8-34.8c-8.2,0-15.7,2.8-21.603,7.5
			c-34-24.2-75.697-38.5-120.6-38.5c-114.9,0-208,93.1-208,208c0,114.899,93.1,208,208,208c114.9,0,208-93.102,208-208
			C469,210.694,454.7,168.993,430.5,134.993z M396.8,391.394c-17.6,17.6-38.2,31.5-61.1,41.2c-23.7,10-48.8,15.1-74.8,15.1
			c-25.9,0-51.103-5.1-74.8-15.1c-22.9-9.7-43.4-23.5-61.1-41.2c-17.6-17.6-31.5-38.2-41.2-61.1c-10-23.7-15.1-48.801-15.1-74.801
			c0-25.899,5.1-51.102,15.1-74.802c9.7-22.898,23.5-43.398,41.2-61.1s38.2-31.5,61.1-41.2c23.7-10,48.8-15.101,74.8-15.101
			c25.897,0,51.1,5.101,74.8,15.101c12.7,5.399,24.7,12.102,35.897,20c-2.1,4.5-3.3,9.5-3.3,14.899
			c0,19.2,15.603,34.801,34.8,34.801c5.303,0,10.303-1.2,14.9-3.301c7.899,11.2,14.6,23.2,20,35.898
			c10,23.7,15.1,48.802,15.1,74.802c0,25.898-5.1,51.101-15.1,74.801C428.3,353.194,414.5,373.794,396.8,391.394z"/>
		<circle cx="261" cy="255.594" r="96.1"/>
	</g>
	<g>
		<path fill="#FFFFFF" d="M235.5,211.219v88.75l71-44.375L235.5,211.219L235.5,211.219z"/>
	</g>
</g>
</svg>
